<svg width="51" height="51" viewBox="0 0 51 51" fill="none" xmlns="http://www.w3.org/2000/svg">
<path d="M31.75 39.5625H42.6875V42.6875H31.75V39.5625ZM34.875 45.8125H39.5625V48.9375H34.875V45.8125ZM42.6875 36.4375H39.5625C39.5625 34.7188 40.1875 33.3125 41.4375 32.0625L42.2188 31.2813C43.4688 30.0313 44.25 28.1562 44.25 26.2812C44.25 22.375 41.125 19.25 37.2188 19.25C33.3125 19.25 30.1875 22.375 30.1875 26.2812C30.1875 28.1562 30.9687 29.875 32.2187 31.2813L33 32.0625C34.25 33.3125 34.875 34.7188 34.875 36.4375H31.75C31.75 35.6562 31.4375 34.875 30.8125 34.25L30.0312 33.4688C28.1562 31.5938 27.0625 28.9375 27.0625 26.2812C27.0625 20.6562 31.5938 16.125 37.2188 16.125C42.8438 16.125 47.375 20.6562 47.375 26.2812C47.375 28.9375 46.2812 31.5938 44.4062 33.4688L43.625 34.25C43 34.875 42.6875 35.6562 42.6875 36.4375ZM9.875 34.875H22.375V38H9.875V34.875Z" fill="#FFC300"/>
<path d="M19.25 31.75C20.1129 31.75 20.8125 31.0504 20.8125 30.1875C20.8125 29.3246 20.1129 28.625 19.25 28.625C18.3871 28.625 17.6875 29.3246 17.6875 30.1875C17.6875 31.0504 18.3871 31.75 19.25 31.75Z" fill="#FFC300"/>
<path d="M9.875 28.625H14.5625V31.75H9.875V28.625ZM9.875 22.375H20.8125V25.5H9.875V22.375ZM16.125 16.125H27.0625V19.25H16.125V16.125Z" fill="#FFC300"/>
<path d="M11.4375 19.25C12.3004 19.25 13 18.5504 13 17.6875C13 16.8246 12.3004 16.125 11.4375 16.125C10.5746 16.125 9.875 16.8246 9.875 17.6875C9.875 18.5504 10.5746 19.25 11.4375 19.25Z" fill="#FFC300"/>
<path d="M25.5 9.875H31.75V13H25.5V9.875Z" fill="#FFC300"/>
<path d="M20.8125 13C21.6754 13 22.375 12.3004 22.375 11.4375C22.375 10.5746 21.6754 9.875 20.8125 9.875C19.9496 9.875 19.25 10.5746 19.25 11.4375C19.25 12.3004 19.9496 13 20.8125 13Z" fill="#FFC300"/>
<path d="M9.875 9.875H16.125V13H9.875V9.875Z" fill="#FFC300"/>
<path d="M28.625 44.25H6.75V6.75H34.875V13H38V6.75C38 5.03125 36.5938 3.625 34.875 3.625H6.75C5.03125 3.625 3.625 5.03125 3.625 6.75V44.25C3.625 45.9688 5.03125 47.375 6.75 47.375H28.625V44.25Z" fill="#FFC300"/>
</svg>
